<svg width="65" height="65" viewBox="0 0 65 65" fill="none" xmlns="http://www.w3.org/2000/svg">
<circle cx="32.3457" cy="32.3537" r="31.6928" fill="#EE7026" fill-opacity="0.5"/>
<circle cx="32.3457" cy="32.3537" r="26.1291" fill="#EE7026" fill-opacity="0.7"/>
<path fill-rule="evenodd" clip-rule="evenodd" d="M25.9473 23.837C24.2999 24.6606 23.7484 25.5714 23.7484 26.2127C23.7484 26.8541 24.2999 27.7648 25.9473 28.5884C27.5214 29.3753 29.7819 29.8973 32.3457 29.8973C34.9095 29.8973 37.17 29.3753 38.744 28.5884C40.3915 27.7648 40.943 26.8541 40.943 26.2127C40.943 25.5714 40.3915 24.6606 38.744 23.837C37.17 23.0501 34.9095 22.5282 32.3457 22.5282C29.7819 22.5282 27.5214 23.0501 25.9473 23.837ZM43.3994 26.2127C43.3994 24.1398 41.7512 22.5942 39.8424 21.6399C37.8603 20.649 35.208 20.0718 32.3457 20.0718C29.4834 20.0718 26.8311 20.649 24.8489 21.6399C22.9401 22.5942 21.292 24.1398 21.292 26.2127V38.4946C21.292 40.5675 22.9401 42.1132 24.8489 43.0674C26.8311 44.0583 29.4834 44.6355 32.3457 44.6355C35.208 44.6355 37.8603 44.0583 39.8424 43.0674C41.7512 42.1132 43.3994 40.5675 43.3994 38.4946V26.2127ZM40.943 30.1441C40.5939 30.3811 40.2233 30.5951 39.8424 30.7855C37.8603 31.7764 35.208 32.3537 32.3457 32.3537C29.4834 32.3537 26.8311 31.7764 24.8489 30.7855C24.468 30.5951 24.0975 30.3811 23.7484 30.1441V32.3537C23.7484 32.995 24.2999 33.9058 25.9473 34.7293C27.5214 35.5162 29.7819 36.0382 32.3457 36.0382C34.9095 36.0382 37.17 35.5162 38.744 34.7293C40.3915 33.9058 40.943 32.995 40.943 32.3537V30.1441ZM40.943 36.285C40.5939 36.5221 40.2233 36.736 39.8424 36.9265C37.8603 37.9174 35.208 38.4946 32.3457 38.4946C29.4834 38.4946 26.8311 37.9174 24.8489 36.9265C24.468 36.736 24.0975 36.5221 23.7484 36.285V38.4946C23.7484 39.1359 24.2999 40.0467 25.9473 40.8703C27.5214 41.6572 29.7819 42.1792 32.3457 42.1792C34.9095 42.1792 37.17 41.6572 38.744 40.8703C40.3915 40.0467 40.943 39.1359 40.943 38.4946V36.285Z" fill="white"/>
</svg>
