<svg width="64" height="65" viewBox="0 0 64 65" fill="none" xmlns="http://www.w3.org/2000/svg">
<circle cx="31.918" cy="32.3537" r="31.6928" fill="#EE7026" fill-opacity="0.5"/>
<circle cx="31.918" cy="32.3537" r="26.1291" fill="#EE7026" fill-opacity="0.7"/>
<path fill-rule="evenodd" clip-rule="evenodd" d="M21.7615 19.9893H36.778C37.3624 19.991 37.9223 20.2239 38.3356 20.6371C38.7488 21.0503 38.9817 21.6103 38.9834 22.1946L38.9834 22.1972L38.9834 41.1777H37.217V22.1989C37.2165 22.0815 37.1696 21.9691 37.0866 21.8861C37.0036 21.8031 36.8912 21.7562 36.7738 21.7556H21.7631C21.6458 21.7562 21.5334 21.8031 21.4504 21.8861C21.3674 21.9691 21.3205 22.0815 21.3199 22.1988V41.6255C21.3213 41.9768 21.4614 42.3134 21.7098 42.5618C21.9583 42.8102 22.2948 42.9504 22.646 42.9518H40.7497V44.7181H22.6447L22.642 44.7181C21.8237 44.7157 21.0395 44.3895 20.4609 43.8108C19.8822 43.2322 19.556 42.448 19.5536 41.6297L19.5536 41.627V22.1946C19.5553 21.6103 19.7882 21.0503 20.2014 20.6371C20.6146 20.2239 21.1746 19.991 21.7589 19.9893L21.7615 19.9893Z" fill="white"/>
<path fill-rule="evenodd" clip-rule="evenodd" d="M37.217 25.2882C37.217 24.8004 37.6125 24.405 38.1002 24.405H42.0745C42.6601 24.405 43.2217 24.6377 43.6357 25.0517C44.0498 25.4658 44.2824 26.0274 44.2824 26.613V41.1853C44.2824 42.1223 43.9102 43.0208 43.2477 43.6833C42.5852 44.3458 41.6867 44.718 40.7497 44.718C39.8128 44.718 38.9143 44.3458 38.2517 43.6833C37.5892 43.0208 37.217 42.1223 37.217 41.1853V25.2882ZM38.9834 26.1714V41.1853C38.9834 41.6538 39.1695 42.1031 39.5007 42.4343C39.832 42.7656 40.2813 42.9517 40.7497 42.9517C41.2182 42.9517 41.6675 42.7656 41.9987 42.4343C42.33 42.1031 42.5161 41.6538 42.5161 41.1853V26.613C42.5161 26.4958 42.4696 26.3835 42.3867 26.3007C42.3039 26.2179 42.1916 26.1714 42.0745 26.1714H38.9834Z" fill="white"/>
<path fill-rule="evenodd" clip-rule="evenodd" d="M30.1516 25.2882C30.1516 24.8004 30.547 24.405 31.0348 24.405H34.5675C35.0553 24.405 35.4507 24.8004 35.4507 25.2882C35.4507 25.776 35.0553 26.1714 34.5675 26.1714H31.0348C30.547 26.1714 30.1516 25.776 30.1516 25.2882ZM30.1516 28.8209C30.1516 28.3331 30.547 27.9377 31.0348 27.9377H34.5675C35.0553 27.9377 35.4507 28.3331 35.4507 28.8209C35.4507 29.3087 35.0553 29.7041 34.5675 29.7041H31.0348C30.547 29.7041 30.1516 29.3087 30.1516 28.8209ZM23.0862 32.3536C23.0862 31.8658 23.4817 31.4704 23.9694 31.4704H34.5675C35.0553 31.4704 35.4507 31.8658 35.4507 32.3536C35.4507 32.8414 35.0553 33.2368 34.5675 33.2368H23.9694C23.4817 33.2368 23.0862 32.8414 23.0862 32.3536ZM23.0862 35.8863C23.0862 35.3985 23.4817 35.0031 23.9694 35.0031H34.5675C35.0553 35.0031 35.4507 35.3985 35.4507 35.8863C35.4507 36.3741 35.0553 36.7695 34.5675 36.7695H23.9694C23.4817 36.7695 23.0862 36.3741 23.0862 35.8863ZM23.0862 39.419C23.0862 38.9312 23.4817 38.5358 23.9694 38.5358H34.5675C35.0553 38.5358 35.4507 38.9312 35.4507 39.419C35.4507 39.9067 35.0553 40.3022 34.5675 40.3022H23.9694C23.4817 40.3022 23.0862 39.9067 23.0862 39.419Z" fill="white"/>
<path d="M27.5021 29.7041H23.9694C23.7352 29.7041 23.5105 29.611 23.3449 29.4454C23.1793 29.2798 23.0862 29.0551 23.0862 28.8209V25.2882C23.0862 25.054 23.1793 24.8293 23.3449 24.6637C23.5105 24.4981 23.7352 24.405 23.9694 24.405H27.5021C27.7363 24.405 27.961 24.4981 28.1266 24.6637C28.2922 24.8293 28.3853 25.054 28.3853 25.2882V28.8209C28.3853 29.0551 28.2922 29.2798 28.1266 29.4454C27.961 29.611 27.7363 29.7041 27.5021 29.7041Z" fill="white"/>
</svg>
