<svg width="64" height="64" viewBox="0 0 64 64" fill="none" xmlns="http://www.w3.org/2000/svg">
<circle cx="31.9138" cy="32.0253" r="31.6928" fill="#EE7026" fill-opacity="0.5"/>
<circle cx="31.9138" cy="32.0253" r="26.1291" fill="#EE7026" fill-opacity="0.7"/>
<path d="M33.179 20.6382C30.159 20.6382 27.2626 21.8379 25.1271 23.9734C22.9916 26.1089 21.7919 29.0052 21.7919 32.0253H17.9962L22.918 36.947L23.0065 37.1242L28.1181 32.0253H24.3224C24.3224 27.1288 28.2826 23.1687 33.179 23.1687C38.0755 23.1687 42.0357 27.1288 42.0357 32.0253C42.0357 36.9217 38.0755 40.8819 33.179 40.8819C30.7371 40.8819 28.523 39.8824 26.9288 38.2755L25.1321 40.0722C26.1866 41.1325 27.4405 41.9735 28.8216 42.5468C30.2027 43.1201 31.6837 43.4143 33.179 43.4124C36.1991 43.4124 39.0954 42.2127 41.2309 40.0772C43.3664 37.9417 44.5661 35.0453 44.5661 32.0253C44.5661 29.0052 43.3664 26.1089 41.2309 23.9734C39.0954 21.8379 36.1991 20.6382 33.179 20.6382V20.6382ZM31.9138 26.9644V33.2905L37.329 36.5042L38.24 34.9733L33.8116 32.3416V26.9644H31.9138Z" fill="white"/>
</svg>
