<svg width="64" height="64" viewBox="0 0 64 64" fill="none" xmlns="http://www.w3.org/2000/svg">
<circle cx="31.918" cy="31.7656" r="31.6928" fill="#EE7026" fill-opacity="0.5"/>
<circle cx="31.918" cy="31.7656" r="26.1291" fill="#EE7026" fill-opacity="0.7"/>
<path d="M26.3006 21.6543H22.9302V25.0247H20.6833V19.4073H26.3006V21.6543ZM43.1527 25.0247V19.4073H37.5353V21.6543H40.9057V25.0247H43.1527ZM26.3006 41.8767H22.9302V38.5063H20.6833V44.1237H26.3006V41.8767ZM40.9057 38.5063V41.8767H37.5353V44.1237H43.1527V38.5063H40.9057ZM37.5353 25.0247H26.3006V38.5063H37.5353V25.0247ZM39.7823 38.5063C39.7823 39.7421 38.7711 40.7533 37.5353 40.7533H26.3006C25.0648 40.7533 24.0537 39.7421 24.0537 38.5063V25.0247C24.0537 23.7889 25.0648 22.7778 26.3006 22.7778H37.5353C38.7711 22.7778 39.7823 23.7889 39.7823 25.0247V38.5063ZM35.2884 27.2716H28.5476V29.5186H35.2884V27.2716ZM35.2884 30.642H28.5476V32.889H35.2884V30.642ZM35.2884 34.0124H28.5476V36.2594H35.2884V34.0124Z" fill="white"/>
</svg>
