<svg width="1726" height="755" viewBox="0 0 1726 755" fill="none" xmlns="http://www.w3.org/2000/svg">
<rect width="1754" height="754" transform="translate(-28 0.0258789)" fill="white"/>
<mask id="mask0_640_566" style="mask-type:alpha" maskUnits="userSpaceOnUse" x="0" y="8" width="1549" height="737">
<g clip-path="url(#clip0_640_566)">
<path d="M872.973 378.513C872.973 557.846 754.403 703.224 608.139 703.224C461.874 703.224 -451.968 74.2346 -451.968 -105.098C-451.968 -284.431 861.046 -37.546 1007.31 -37.546C1153.57 -37.546 872.973 199.181 872.973 378.513Z" fill="url(#paint0_linear_640_566)"/>
</g>
</mask>
<g mask="url(#mask0_640_566)">
<g opacity="0.09">
<line x1="-89.6415" y1="476.449" x2="1751.15" y2="476.449" stroke="url(#paint1_linear_640_566)" stroke-width="1.53527"/>
<line x1="-89.6415" y1="83.4164" x2="1751.15" y2="83.4164" stroke="url(#paint2_linear_640_566)" stroke-width="1.53527"/>
<line x1="-89.6415" y1="672.963" x2="1751.15" y2="672.963" stroke="url(#paint3_linear_640_566)" stroke-width="1.53527"/>
<line x1="-89.6415" y1="279.933" x2="1751.15" y2="279.933" stroke="url(#paint4_linear_640_566)" stroke-width="1.53527"/>
<line x1="-89.6415" y1="378.191" x2="1751.15" y2="378.191" stroke="url(#paint5_linear_640_566)" stroke-width="1.53527"/>
<line x1="-89.6415" y1="574.705" x2="1751.15" y2="574.705" stroke="url(#paint6_linear_640_566)" stroke-width="1.53527"/>
<line x1="-89.6415" y1="181.675" x2="1751.15" y2="181.675" stroke="url(#paint7_linear_640_566)" stroke-width="1.53527"/>
<line x1="753.995" y1="48.8748" x2="753.995" y2="1470.54" stroke="url(#paint8_linear_640_566)" stroke-width="1.53527"/>
<line x1="360.963" y1="48.8745" x2="360.963" y2="1470.54" stroke="url(#paint9_linear_640_566)" stroke-width="1.53527"/>
<line x1="1147.02" y1="48.8748" x2="1147.02" y2="1470.54" stroke="url(#paint10_linear_640_566)" stroke-width="1.53527"/>
<line x1="1540.05" y1="48.8748" x2="1540.05" y2="1470.54" stroke="url(#paint11_linear_640_566)" stroke-width="1.53527"/>
<line x1="164.446" y1="48.8748" x2="164.446" y2="1470.54" stroke="url(#paint12_linear_640_566)" stroke-width="1.53527"/>
<line x1="950.506" y1="48.8748" x2="950.506" y2="1470.54" stroke="url(#paint13_linear_640_566)" stroke-width="1.53527"/>
<line x1="557.479" y1="48.8748" x2="557.479" y2="1470.54" stroke="url(#paint14_linear_640_566)" stroke-width="1.53527"/>
<line x1="1343.54" y1="48.8745" x2="1343.54" y2="1470.54" stroke="url(#paint15_linear_640_566)" stroke-width="1.53527"/>
<line x1="66.191" y1="48.8748" x2="66.191" y2="1470.54" stroke="url(#paint16_linear_640_566)" stroke-width="1.53527"/>
<line x1="852.25" y1="48.8745" x2="852.25" y2="1470.54" stroke="url(#paint17_linear_640_566)" stroke-width="1.53527"/>
<line x1="459.218" y1="48.8748" x2="459.218" y2="1470.54" stroke="url(#paint18_linear_640_566)" stroke-width="1.53527"/>
<line x1="1245.28" y1="48.8748" x2="1245.28" y2="1470.54" stroke="url(#paint19_linear_640_566)" stroke-width="1.53527"/>
<line x1="262.707" y1="48.8748" x2="262.707" y2="1470.54" stroke="url(#paint20_linear_640_566)" stroke-width="1.53527"/>
<line x1="1048.77" y1="48.8748" x2="1048.77" y2="1470.54" stroke="url(#paint21_linear_640_566)" stroke-width="1.53527"/>
<line x1="655.734" y1="48.8748" x2="655.734" y2="1470.54" stroke="url(#paint22_linear_640_566)" stroke-width="1.53527"/>
<line x1="1441.79" y1="48.8748" x2="1441.79" y2="1470.54" stroke="url(#paint23_linear_640_566)" stroke-width="1.53527"/>
</g>
<g opacity="0.5">
<rect x="1344.17" y="282.812" width="97.6993" height="96.3036" fill="#EE7026" fill-opacity="0.14"/>
<rect x="556.99" y="577.244" width="97.6993" height="96.3036" fill="#EE7026" fill-opacity="0.12"/>
<rect x="1245.07" y="380.511" width="97.6993" height="96.3036" fill="#EE7026" fill-opacity="0.14"/>
<rect x="459.112" y="282.812" width="97.6993" height="96.3036" fill="#EE7026" fill-opacity="0.12"/>
<rect x="1245.07" y="282.812" width="97.6993" height="96.3036" fill="#EE7026" fill-opacity="0.14"/>
<rect x="459.112" y="577.244" width="97.6993" height="96.3036" fill="#EE7026" fill-opacity="0.12"/>
<rect x="1147.37" y="86.0173" width="97.6993" height="97.6993" fill="#EE7026" fill-opacity="0.12"/>
<rect x="1048.6" y="-12.2429" width="97.6993" height="96.8225" fill="#EE7026" fill-opacity="0.12"/>
<rect x="1048.6" y="85.4946" width="97.6993" height="97.4585" fill="#EE7026" fill-opacity="0.12"/>
<rect x="164.797" y="182.321" width="99.095" height="100.491" fill="#EE7026" fill-opacity="0.14"/>
<rect x="65.7015" y="84.6218" width="99.095" height="97.6993" fill="#EE7026" fill-opacity="0.14"/>
<rect x="-31.9977" y="86.0173" width="99.095" height="97.6993" fill="#EE7026" fill-opacity="0.14"/>
<rect x="65.7015" y="182.321" width="99.095" height="100.491" fill="#EE7026" fill-opacity="0.14"/>
<rect x="459.29" y="-13.0776" width="99.095" height="97.6993" fill="#EE7026" fill-opacity="0.14"/>
<rect x="164.797" y="379.115" width="97.6993" height="99.095" fill="#EE7026" fill-opacity="0.14"/>
</g>
</g>
<defs>
<linearGradient id="paint0_linear_640_566" x1="180.565" y1="-15.2844" x2="734.031" y2="279.488" gradientUnits="userSpaceOnUse">
<stop stop-color="white"/>
<stop offset="1" stop-color="white" stop-opacity="0"/>
</linearGradient>
<linearGradient id="paint1_linear_640_566" x1="830.755" y1="477.217" x2="830.755" y2="478.217" gradientUnits="userSpaceOnUse">
<stop stop-color="#222020"/>
<stop offset="1"/>
</linearGradient>
<linearGradient id="paint2_linear_640_566" x1="830.755" y1="84.1841" x2="830.755" y2="85.1841" gradientUnits="userSpaceOnUse">
<stop stop-color="#222020"/>
<stop offset="1"/>
</linearGradient>
<linearGradient id="paint3_linear_640_566" x1="830.755" y1="673.73" x2="830.755" y2="674.73" gradientUnits="userSpaceOnUse">
<stop stop-color="#222020"/>
<stop offset="1"/>
</linearGradient>
<linearGradient id="paint4_linear_640_566" x1="830.755" y1="280.701" x2="830.755" y2="281.701" gradientUnits="userSpaceOnUse">
<stop stop-color="#222020"/>
<stop offset="1"/>
</linearGradient>
<linearGradient id="paint5_linear_640_566" x1="830.755" y1="378.958" x2="830.755" y2="379.958" gradientUnits="userSpaceOnUse">
<stop stop-color="#222020"/>
<stop offset="1"/>
</linearGradient>
<linearGradient id="paint6_linear_640_566" x1="830.755" y1="575.472" x2="830.755" y2="576.472" gradientUnits="userSpaceOnUse">
<stop stop-color="#222020"/>
<stop offset="1"/>
</linearGradient>
<linearGradient id="paint7_linear_640_566" x1="830.755" y1="182.442" x2="830.755" y2="183.442" gradientUnits="userSpaceOnUse">
<stop stop-color="#222020"/>
<stop offset="1"/>
</linearGradient>
<linearGradient id="paint8_linear_640_566" x1="753.227" y1="759.707" x2="752.227" y2="759.707" gradientUnits="userSpaceOnUse">
<stop stop-color="#222020"/>
<stop offset="1"/>
</linearGradient>
<linearGradient id="paint9_linear_640_566" x1="360.195" y1="759.707" x2="359.195" y2="759.707" gradientUnits="userSpaceOnUse">
<stop stop-color="#222020"/>
<stop offset="1"/>
</linearGradient>
<linearGradient id="paint10_linear_640_566" x1="1146.25" y1="759.707" x2="1145.25" y2="759.707" gradientUnits="userSpaceOnUse">
<stop stop-color="#222020"/>
<stop offset="1"/>
</linearGradient>
<linearGradient id="paint11_linear_640_566" x1="1539.29" y1="759.707" x2="1538.29" y2="759.707" gradientUnits="userSpaceOnUse">
<stop stop-color="#222020"/>
<stop offset="1"/>
</linearGradient>
<linearGradient id="paint12_linear_640_566" x1="163.679" y1="759.707" x2="162.679" y2="759.707" gradientUnits="userSpaceOnUse">
<stop stop-color="#222020"/>
<stop offset="1"/>
</linearGradient>
<linearGradient id="paint13_linear_640_566" x1="949.738" y1="759.707" x2="948.738" y2="759.707" gradientUnits="userSpaceOnUse">
<stop stop-color="#222020"/>
<stop offset="1"/>
</linearGradient>
<linearGradient id="paint14_linear_640_566" x1="556.711" y1="759.707" x2="555.711" y2="759.707" gradientUnits="userSpaceOnUse">
<stop stop-color="#222020"/>
<stop offset="1"/>
</linearGradient>
<linearGradient id="paint15_linear_640_566" x1="1342.77" y1="759.707" x2="1341.77" y2="759.707" gradientUnits="userSpaceOnUse">
<stop stop-color="#222020"/>
<stop offset="1"/>
</linearGradient>
<linearGradient id="paint16_linear_640_566" x1="65.4233" y1="759.707" x2="64.4233" y2="759.707" gradientUnits="userSpaceOnUse">
<stop stop-color="#222020"/>
<stop offset="1"/>
</linearGradient>
<linearGradient id="paint17_linear_640_566" x1="851.483" y1="759.707" x2="850.483" y2="759.707" gradientUnits="userSpaceOnUse">
<stop stop-color="#222020"/>
<stop offset="1"/>
</linearGradient>
<linearGradient id="paint18_linear_640_566" x1="458.45" y1="759.707" x2="457.45" y2="759.707" gradientUnits="userSpaceOnUse">
<stop stop-color="#222020"/>
<stop offset="1"/>
</linearGradient>
<linearGradient id="paint19_linear_640_566" x1="1244.52" y1="759.707" x2="1243.52" y2="759.707" gradientUnits="userSpaceOnUse">
<stop stop-color="#222020"/>
<stop offset="1"/>
</linearGradient>
<linearGradient id="paint20_linear_640_566" x1="261.94" y1="759.707" x2="260.94" y2="759.707" gradientUnits="userSpaceOnUse">
<stop stop-color="#222020"/>
<stop offset="1"/>
</linearGradient>
<linearGradient id="paint21_linear_640_566" x1="1048" y1="759.707" x2="1047" y2="759.707" gradientUnits="userSpaceOnUse">
<stop stop-color="#222020"/>
<stop offset="1"/>
</linearGradient>
<linearGradient id="paint22_linear_640_566" x1="654.967" y1="759.707" x2="653.967" y2="759.707" gradientUnits="userSpaceOnUse">
<stop stop-color="#222020"/>
<stop offset="1"/>
</linearGradient>
<linearGradient id="paint23_linear_640_566" x1="1441.03" y1="759.707" x2="1440.03" y2="759.707" gradientUnits="userSpaceOnUse">
<stop stop-color="#222020"/>
<stop offset="1"/>
</linearGradient>
<clipPath id="clip0_640_566">
<rect width="1547.56" height="736.451" fill="white" transform="translate(0.937553 8.5127)"/>
</clipPath>
</defs>
</svg>
