<svg width="49" height="47" viewBox="0 0 49 47" fill="none" xmlns="http://www.w3.org/2000/svg">
<path d="M21.084 3.63672C25.4717 3.63702 29.2075 6.33333 30.8135 10.1465C31.5254 10.093 32.2435 10.111 32.9551 10.2041C34.3354 10.3849 35.6664 10.84 36.8711 11.541C38.0758 12.2423 39.1318 13.1764 39.9775 14.2881C40.8232 15.3998 41.4438 16.6687 41.8047 18.0205C42.1654 19.3721 42.2597 20.7828 42.083 22.1709C41.9061 23.5592 41.4611 24.9009 40.7725 26.1172C40.0838 27.3334 39.1641 28.4025 38.0654 29.2617C37.397 29.7844 36.6686 30.2218 35.8994 30.5684V44.4404C35.8992 45.5915 34.9655 46.525 33.8145 46.5254H8.35352C7.20234 46.5252 6.26881 45.5916 6.26855 44.4404V30.5684C5.4994 30.2216 4.77098 29.7836 4.10254 29.2607C3.00402 28.4013 2.08495 27.3316 1.39648 26.1152C0.708057 24.8987 0.262517 23.5574 0.0859375 22.1689C-0.0905388 20.7805 0.00506787 19.3694 0.366211 18.0176C0.727446 16.6658 1.34836 15.3976 2.19434 14.2861C3.04052 13.1745 4.09566 12.24 5.30078 11.5391C6.50588 10.8382 7.83718 10.3836 9.21777 10.2031C9.92866 10.1103 10.6462 10.093 11.3574 10.1465C12.0302 8.54563 13.083 7.12253 14.4395 6.01367C16.3179 4.47831 18.6628 3.63725 21.084 3.63672ZM10.4385 37.9385V42.3555H31.7295V37.9219L10.4385 37.9385ZM21.084 7.80664C19.6304 7.80711 18.2162 8.31196 17.0781 9.24219C15.9395 10.1731 15.144 11.476 14.8311 12.9365C14.7108 13.4969 14.3648 13.9835 13.875 14.2812C13.385 14.5789 12.7931 14.6614 12.2402 14.5098C11.4321 14.2879 10.5885 14.2296 9.75879 14.3379C8.92876 14.4463 8.12576 14.72 7.39746 15.1436C6.66909 15.5672 6.02841 16.1341 5.5127 16.8115C4.99705 17.489 4.61619 18.2645 4.39453 19.0938C4.173 19.923 4.11434 20.7899 4.22266 21.6426C4.33113 22.4954 4.60462 23.3179 5.02539 24.0615C5.44612 24.8048 6.0061 25.4556 6.67188 25.9766C7.33777 26.4974 8.09789 26.8796 8.90625 27.1016C9.81103 27.3505 10.4384 28.1738 10.4385 29.1123V33.7686L31.7295 33.752V29.1123C31.7296 28.1734 32.3572 27.35 33.2627 27.1016C34.071 26.8797 34.8311 26.4983 35.4971 25.9775C36.1629 25.4568 36.7227 24.8057 37.1436 24.0625C37.5644 23.3192 37.8386 22.4971 37.9473 21.6445C38.0558 20.7919 37.9967 19.925 37.7754 19.0957C37.554 18.2665 37.1745 17.49 36.6592 16.8125C36.1439 16.1352 35.5023 15.5693 34.7744 15.1455C34.0464 14.7218 33.2429 14.4476 32.4131 14.3389C31.5833 14.2303 30.7398 14.2891 29.9316 14.5107C29.3787 14.6624 28.7869 14.5789 28.2969 14.2812C27.8069 13.9833 27.4608 13.4962 27.3408 12.9355C26.7103 9.98392 24.1292 7.80699 21.084 7.80664ZM42.417 0C43.5214 0.000234988 44.417 0.895575 44.417 2V3.65039H46.416C47.5206 3.65039 48.416 4.54582 48.416 5.65039C48.4158 6.75475 47.5204 7.65039 46.416 7.65039H44.417V9.05273C44.4168 10.157 43.5213 11.0525 42.417 11.0527C41.3126 11.0527 40.4171 10.1571 40.417 9.05273V7.65039H37.999C36.8947 7.65032 35.9993 6.75471 35.999 5.65039C35.999 4.54586 36.8945 3.65046 37.999 3.65039H40.417V2C40.417 0.895471 41.3125 6.59689e-05 42.417 0Z" fill="white"/>
</svg>
