<svg width="49" height="49" viewBox="0 0 49 49" fill="none" xmlns="http://www.w3.org/2000/svg">
<path d="M26.3815 6.27539C21.562 6.27539 16.94 8.18992 13.5321 11.5978C10.1242 15.0057 8.20964 19.6278 8.20964 24.4473H2.15234L10.0066 32.3016L10.148 32.5843L18.3051 24.4473H12.2478C12.2478 16.6334 18.5676 10.3136 26.3815 10.3136C34.1954 10.3136 40.5152 16.6334 40.5152 24.4473C40.5152 32.2612 34.1954 38.581 26.3815 38.581C22.4847 38.581 18.9512 36.9859 16.4072 34.4216L13.5401 37.2888C15.2228 38.9808 17.2239 40.3229 19.4279 41.2378C21.6319 42.1527 23.9952 42.6222 26.3815 42.6192C31.201 42.6192 35.8231 40.7046 39.231 37.2967C42.6389 33.8889 44.5534 29.2668 44.5534 24.4473C44.5534 19.6278 42.6389 15.0057 39.231 11.5978C35.8231 8.18992 31.201 6.27539 26.3815 6.27539V6.27539ZM24.3624 16.3709V26.4664L33.0042 31.5949L34.4579 29.1518L27.3911 24.9521V16.3709H24.3624Z" fill="#EE7026"/>
</svg>
