<svg width="49" height="48" viewBox="0 0 49 48" fill="none" xmlns="http://www.w3.org/2000/svg">
<path fill-rule="evenodd" clip-rule="evenodd" d="M14.1475 10.0933C11.4952 11.4192 10.6072 12.8855 10.6072 13.9181C10.6072 14.9507 11.4952 16.417 14.1475 17.7429C16.6817 19.0098 20.3211 19.8502 24.4488 19.8502C28.5765 19.8502 32.2159 19.0098 34.7501 17.7429C37.4024 16.417 38.2904 14.9507 38.2904 13.9181C38.2904 12.8855 37.4024 11.4192 34.7501 10.0933C32.2159 8.8264 28.5765 7.98599 24.4488 7.98599C20.3211 7.98599 16.6817 8.8264 14.1475 10.0933ZM42.2451 13.9181C42.2451 10.5807 39.5916 8.09225 36.5185 6.55594C33.3272 4.96059 29.0571 4.03125 24.4488 4.03125C19.8405 4.03125 15.5704 4.96059 12.3791 6.55594C9.30597 8.09225 6.65247 10.5807 6.65247 13.9181V33.6918C6.65247 37.0292 9.30597 39.5177 12.3791 41.054C15.5704 42.6493 19.8405 43.5787 24.4488 43.5787C29.0571 43.5787 33.3272 42.6493 36.5185 41.054C39.5916 39.5177 42.2451 37.0292 42.2451 33.6918V13.9181ZM38.2904 20.2476C37.7283 20.6292 37.1318 20.9737 36.5185 21.2803C33.3272 22.8756 29.0571 23.805 24.4488 23.805C19.8405 23.805 15.5704 22.8756 12.3791 21.2803C11.7659 20.9737 11.1693 20.6292 10.6072 20.2476V23.805C10.6072 24.8375 11.4952 26.3038 14.1475 27.6298C16.6817 28.8967 20.3211 29.7371 24.4488 29.7371C28.5765 29.7371 32.2159 28.8967 34.7501 27.6298C37.4024 26.3038 38.2904 24.8375 38.2904 23.805V20.2476ZM38.2904 30.1345C37.7283 30.516 37.1318 30.8605 36.5185 31.1671C33.3272 32.7625 29.0571 33.6918 24.4488 33.6918C19.8405 33.6918 15.5704 32.7625 12.3791 31.1671C11.7659 30.8605 11.1693 30.516 10.6072 30.1345V33.6918C10.6072 34.7244 11.4952 36.1907 14.1475 37.5166C16.6817 38.7835 20.3211 39.6239 24.4488 39.6239C28.5765 39.6239 32.2159 38.7835 34.7501 37.5166C37.4024 36.1907 38.2904 34.7244 38.2904 33.6918V30.1345Z" fill="#EE7026"/>
</svg>
