<svg width="47" height="47" viewBox="0 0 47 47" fill="none" xmlns="http://www.w3.org/2000/svg">
<path fill-rule="evenodd" clip-rule="evenodd" d="M6.67512 2.93408H31.3539C32.3143 2.93688 33.2346 3.31963 33.9137 3.99873C34.5928 4.67783 34.9755 5.59809 34.9783 6.55848L34.9783 6.5627L34.9783 37.7561H32.0754V6.56548C32.0745 6.37258 31.9975 6.18782 31.861 6.05138C31.7246 5.91498 31.5399 5.83794 31.347 5.83697H6.67779C6.48493 5.83794 6.30022 5.91498 6.16381 6.05138C6.02741 6.18779 5.95037 6.37251 5.9494 6.56537V38.4921C5.95162 39.0694 6.18196 39.6225 6.59025 40.0308C6.99849 40.4391 7.55151 40.6694 8.12878 40.6717H37.8812V43.5746H8.12657L8.12224 43.5746C6.77731 43.5706 5.48861 43.0345 4.5376 42.0835C3.58658 41.1325 3.05053 39.8438 3.04652 38.4989L3.04651 38.4945V6.55848C3.0493 5.59809 3.43205 4.67783 4.11116 3.99873C4.79026 3.31963 5.71052 2.93688 6.67091 2.93409L6.67512 2.93408Z" fill="#EE7026"/>
<path fill-rule="evenodd" clip-rule="evenodd" d="M32.0754 11.6429C32.0754 10.8412 32.7253 10.1914 33.5269 10.1914H40.0584C41.0208 10.1914 41.9437 10.5737 42.6242 11.2542C43.3047 11.9347 43.687 12.8577 43.687 13.82V37.7689C43.687 39.3087 43.0753 40.7854 41.9865 41.8742C40.8977 42.963 39.421 43.5747 37.8812 43.5747C36.3414 43.5747 34.8647 42.963 33.7759 41.8742C32.6871 40.7854 32.0754 39.3087 32.0754 37.7689V11.6429ZM34.9783 13.0943V37.7689C34.9783 38.5388 35.2842 39.2771 35.8286 39.8215C36.373 40.3659 37.1113 40.6718 37.8812 40.6718C38.6511 40.6718 39.3895 40.3659 39.9339 39.8215C40.4783 39.2771 40.7841 38.5388 40.7841 37.7689V13.82C40.7841 13.6276 40.7077 13.443 40.5716 13.3069C40.4355 13.1708 40.2509 13.0943 40.0584 13.0943H34.9783Z" fill="#EE7026"/>
<path fill-rule="evenodd" clip-rule="evenodd" d="M20.4639 11.6429C20.4639 10.8412 21.1137 10.1914 21.9153 10.1914H27.7211C28.5227 10.1914 29.1725 10.8412 29.1725 11.6429C29.1725 12.4445 28.5227 13.0943 27.7211 13.0943H21.9153C21.1137 13.0943 20.4639 12.4445 20.4639 11.6429ZM20.4639 17.4486C20.4639 16.647 21.1137 15.9972 21.9153 15.9972H27.7211C28.5227 15.9972 29.1725 16.647 29.1725 17.4486C29.1725 18.2503 28.5227 18.9001 27.7211 18.9001H21.9153C21.1137 18.9001 20.4639 18.2503 20.4639 17.4486ZM8.85229 23.2544C8.85229 22.4528 9.50213 21.803 10.3037 21.803H27.7211C28.5227 21.803 29.1725 22.4528 29.1725 23.2544C29.1725 24.056 28.5227 24.7059 27.7211 24.7059H10.3037C9.50213 24.7059 8.85229 24.056 8.85229 23.2544ZM8.85229 29.0602C8.85229 28.2586 9.50213 27.6088 10.3037 27.6088H27.7211C28.5227 27.6088 29.1725 28.2586 29.1725 29.0602C29.1725 29.8618 28.5227 30.5117 27.7211 30.5117H10.3037C9.50213 30.5117 8.85229 29.8618 8.85229 29.0602ZM8.85229 34.866C8.85229 34.0644 9.50213 33.4145 10.3037 33.4145H27.7211C28.5227 33.4145 29.1725 34.0644 29.1725 34.866C29.1725 35.6676 28.5227 36.3174 27.7211 36.3174H10.3037C9.50213 36.3174 8.85229 35.6676 8.85229 34.866Z" fill="#EE7026"/>
<path d="M16.1095 18.9001H10.3037C9.91879 18.9001 9.54961 18.7472 9.27741 18.475C9.00522 18.2028 8.85229 17.8336 8.85229 17.4486V11.6429C8.85229 11.2579 9.00522 10.8887 9.27741 10.6165C9.54961 10.3443 9.91879 10.1914 10.3037 10.1914H16.1095C16.4945 10.1914 16.8637 10.3443 17.1359 10.6165C17.4081 10.8887 17.561 11.2579 17.561 11.6429V17.4486C17.561 17.8336 17.4081 18.2028 17.1359 18.475C16.8637 18.7472 16.4945 18.9001 16.1095 18.9001Z" fill="#EE7026"/>
</svg>
