<svg width="45" height="45" viewBox="0 0 45 45" fill="none" xmlns="http://www.w3.org/2000/svg">
<path d="M13.3923 6.10299H7.94939V11.5459H4.32077V2.47437H13.3923V6.10299ZM40.607 11.5459V2.47437H31.5354V6.10299H36.9784V11.5459H40.607ZM13.3923 38.7606H7.94939V33.3176H4.32077V42.3892H13.3923V38.7606ZM36.9784 33.3176V38.7606H31.5354V42.3892H40.607V33.3176H36.9784ZM31.5354 11.5459H13.3923V33.3176H31.5354V11.5459ZM35.1641 33.3176C35.1641 35.3134 33.5312 36.9463 31.5354 36.9463H13.3923C11.3966 36.9463 9.7637 35.3134 9.7637 33.3176V11.5459C9.7637 9.55018 11.3966 7.9173 13.3923 7.9173H31.5354C33.5312 7.9173 35.1641 9.55018 35.1641 11.5459V33.3176ZM27.9068 15.1745H17.0209V18.8032H27.9068V15.1745ZM27.9068 20.6175H17.0209V24.2461H27.9068V20.6175ZM27.9068 26.0604H17.0209V29.689H27.9068V26.0604Z" fill="#EE7026"/>
</svg>
